<?xml version="1.0" encoding="utf-8"?>
<!-- Generator: Adobe Illustrator 16.0.0, SVG Export Plug-In . SVG Version: 6.00 Build 0)  -->
<!DOCTYPE svg PUBLIC "-//W3C//DTD SVG 1.1//EN" "http://www.w3.org/Graphics/SVG/1.1/DTD/svg11.dtd">
<svg version="1.1" id="Capa_1" xmlns="http://www.w3.org/2000/svg" xmlns:xlink="http://www.w3.org/1999/xlink" x="0px" y="0px"
	 width="2000px" height="365.982px" viewBox="0 0 2000 365.982" enable-background="new 0 0 2000 365.982" xml:space="preserve">
<g>
	<g id="simple_trazados_1_">
		<rect x="1757.449" y="15.597" fill="#434041" width="23.018" height="21.372"/>
		<path fill="#434041" d="M1450.684,170.264c0-45.762-37.229-82.99-82.991-82.99c-30.403,0-57.025,16.445-71.48,40.896
			c-14.453-24.451-41.075-40.896-71.481-40.896c-23.565,0-44.853,9.89-59.973,25.717V87.324h-23.02v165.893h23.02v-82.952h0.002
			c0-33.069,26.903-59.972,59.971-59.972c33.07,0,59.973,26.903,59.973,59.972v82.952h23.019v-82.952
			c0-33.069,26.903-59.972,59.971-59.972c33.071,0,59.973,26.903,59.973,59.972v82.993h42.089v-23.021h-19.07V170.264z"/>
		<path fill="#434041" d="M615.645,87.274c-45.762,0-82.99,37.229-82.99,82.99v156.924h-16.14v23.019h39.159V227.54
			c15.121,15.826,36.406,25.718,59.972,25.718c45.761,0,82.99-37.23,82.99-82.993C698.635,124.502,661.405,87.274,615.645,87.274z
			 M615.645,230.237c-33.069,0-59.972-26.903-59.972-59.973c0-33.069,26.902-59.972,59.972-59.972
			c33.069,0,59.971,26.903,59.971,59.972C675.616,203.333,648.713,230.237,615.645,230.237z"/>
		<path fill="#434041" d="M739.938,170.264V15.793h-38.295v23.019h15.276v131.453c0,45.763,37.229,82.993,82.99,82.993v-23.021
			C766.841,230.237,739.938,203.333,739.938,170.264z"/>
		<path fill="#434041" d="M1675.288,170.264v-59.972h50.28V87.274h-50.28V15.793h-44.12v23.019h21.102v131.453
			c0,45.763,37.23,82.993,82.991,82.993v-23.021C1702.193,230.237,1675.288,203.333,1675.288,170.264z"/>
		<path fill="#434041" d="M960.18,170.264c0-45.762-37.23-82.99-82.991-82.99s-82.989,37.229-82.989,82.99
			c0,45.763,37.229,82.993,82.989,82.993c23.566,0,44.851-9.89,59.972-25.718v25.718h38.323v-23.021H960.18V170.264z
			 M877.189,230.237c-33.068,0-59.971-26.903-59.971-59.973c0-33.069,26.903-59.972,59.971-59.972s59.972,26.903,59.972,59.972
			C937.162,203.333,910.258,230.237,877.189,230.237z"/>
		<polygon fill="#434041" points="1780.467,87.324 1757.449,87.324 1757.449,253.257 1805.546,253.257 1805.546,230.237 
			1780.467,230.237 		"/>
		<path fill="#434041" d="M1097.836,230.237h-16.562c-23.11,0-43.771-12.879-53.915-33.614l-43.389-86.33h18.354V87.274h-37.02
			l-10.283,16.678l51.69,102.843c14.049,28.659,42.615,46.463,74.563,46.463h16.562v13.961c0,33.066-26.903,59.97-59.972,59.97
			v23.019c45.761,0,82.989-37.229,82.989-82.988V87.324h-23.018V230.237z"/>
		<path fill="#434041" d="M1976.759,87.274h-37.202v23.019h18.537l-43.335,86.222l-0.055,0.108
			c-10.146,20.735-30.804,33.614-53.914,33.614h-10.903l-0.256-142.934l-23.018,0.041l0.295,165.975l23.019-0.04v-0.021h10.863
			c31.948,0,60.514-17.802,74.563-46.459l51.689-102.847L1976.759,87.274z"/>
		<path fill="#434041" d="M1552.452,87.274c-45.761,0-82.991,37.229-82.991,82.99c0,45.763,37.23,82.993,82.991,82.993
			c45.762,0,82.989-37.23,82.989-82.993C1635.441,124.502,1598.214,87.274,1552.452,87.274z M1552.452,230.237
			c-33.069,0-59.973-26.903-59.973-59.973c0-33.069,26.903-59.972,59.973-59.972s59.971,26.903,59.971,59.972
			C1612.423,203.333,1585.521,230.237,1552.452,230.237z"/>
	</g>
	<g>
		<path fill="#434041" d="M464.862,170.06c0-45.761-37.229-82.99-82.991-82.99c-45.761,0-82.99,37.229-82.99,82.99
			c0,38.676,26.594,71.253,62.454,80.417c-10.594,17.02-29.463,28.378-50.944,28.378c-33.069,0-59.972-26.904-59.972-59.973v-97.645
			c0-45.763-37.229-82.993-82.99-82.993c-32.972,0-62.409,19.355-75.687,48.931c-43.815,2.198-78.784,38.534-78.784,82.884
			c0,45.762,37.229,82.991,82.99,82.991c45.761,0,82.99-37.229,82.99-82.991c0-38.693-26.62-71.282-62.507-80.428
			c10.753-17.38,29.873-28.369,50.998-28.369c33.069,0,59.972,26.904,59.972,59.974v97.645c0,45.76,37.229,82.991,82.99,82.991
			c33.624,0,62.62-20.114,75.647-48.93C429.872,250.767,464.862,214.422,464.862,170.06z M155.92,170.06
			c0,33.071-26.903,59.974-59.972,59.974c-33.069,0-59.972-26.903-59.972-59.974c0-33.068,26.902-59.972,59.972-59.972
			C129.017,110.088,155.92,136.991,155.92,170.06z M392.739,229.028c0.408-3.326,0.643-6.709,0.643-10.146v-13.725
			c14.761-4.839,25.427-18.719,25.427-35.098c0-20.399-16.538-36.937-36.937-36.937c-20.399,0-36.937,16.537-36.937,36.937
			c0,16.379,10.666,30.259,25.427,35.098v13.725c0,3.363-0.291,6.656-0.826,9.868C342.365,223.048,321.9,198.9,321.9,170.06
			c0-33.068,26.903-59.972,59.971-59.972c33.069,0,59.972,26.903,59.972,59.972C441.843,199.417,420.635,223.898,392.739,229.028z"
			/>
		<circle fill="#434041" cx="95.933" cy="170.06" r="36.937"/>
	</g>
</g>
</svg>
